<svg width="860" height="580" viewBox="0 0 860 580" xmlns="http://www.w3.org/2000/svg" font-family="-apple-system, BlinkMacSystemFont, 'Segoe UI', Helvetica, Arial, sans-serif">
    <defs>
        <style>
            .bg           { fill: #0d1117; }
            .card         { fill: #161b22; stroke: #30363d; stroke-width: 0.75; }
            .section-title{ font-size: 17px; font-weight: 700; fill: #f0f6fc; letter-spacing: -0.3px; }
            .section-count{ font-size: 11px; fill: #8b949e; }
            .cat-label    { font-size: 9.5px; font-weight: 700; fill: #484f58; letter-spacing: 0.1em; }
            .cert-name    { font-size: 12.5px; font-weight: 700; fill: #f0f6fc; }
            .cert-issuer  { font-size: 11px; fill: #8b949e; }
            .badge-text   { font-size: 10px; font-weight: 700; }
            .divider      { stroke: #21262d; stroke-width: 0.75; }
            .footer-text  { font-size: 10.5px; fill: #484f58; }

            .badge-honors-bg   { fill: #26215C; }
            .badge-honors-text { fill: #CECBF6; }
            .badge-verif-bg    { fill: #173404; }
            .badge-verif-text  { fill: #C0DD97; }
            .badge-expert-bg   { fill: #042C53; }
            .badge-expert-text { fill: #B5D4F4; }
            .badge-dist-bg     { fill: #4A1B0C; }
            .badge-dist-text   { fill: #F5C4B3; }

            .icon-purple { fill: #1e1631; }
            .icon-green  { fill: #0d2318; }
            .icon-teal   { fill: #04342C; }
            .icon-blue   { fill: #0d1f2d; }
            .icon-red    { fill: #2d0d0d; }
        </style>
    </defs>

    <rect width="860" height="580" rx="14" class="bg"/>
    <rect x="0" y="0" width="860" height="3" rx="14" fill="#7c3aed" opacity="0.7"/>

    <text x="32" y="48" class="section-title">Certifications &amp; Distinctions</text>
    <rect x="252" y="33" width="90" height="19" rx="9.5" fill="#21262d" stroke="#30363d" stroke-width="0.5"/>
    <text x="297" y="46" text-anchor="middle" class="section-count">8 credentials</text>
    <line x1="32" y1="64" x2="828" y2="64" class="divider"/>

    <text x="32" y="86" class="cat-label">PROGRAMMING LANGUAGES</text>

    <rect x="32" y="94" width="390" height="64" rx="10" class="card"/>
    <rect x="32" y="94" width="3" height="64" rx="2" fill="#7c3aed"/>
    <rect x="46" y="108" width="34" height="34" rx="7" class="icon-purple"/>
    <text x="63" y="130" text-anchor="middle" font-size="15" fill="#a78bfa" font-weight="700">&lt;/&gt;</text>
    <text x="90" y="122" class="cert-name">Java Certification</text>
    <text x="90" y="137" class="cert-issuer">CodinGame</text>
    <rect x="306" y="113" width="102" height="18" rx="9" class="badge-honors-bg"/>
    <text x="357" y="125" text-anchor="middle" class="badge-text badge-honors-text">With Honors</text>

    <rect x="438" y="94" width="390" height="64" rx="10" class="card"/>
    <rect x="438" y="94" width="3" height="64" rx="2" fill="#3fb950"/>
    <rect x="452" y="108" width="34" height="34" rx="7" class="icon-green"/>
    <circle cx="469" cy="125" r="9" stroke="#3fb950" stroke-width="1.5" fill="none"/>
    <path d="M464 125 l3 3 l6-6" stroke="#3fb950" stroke-width="1.75" stroke-linecap="round" stroke-linejoin="round" fill="none"/>
    <text x="496" y="122" class="cert-name">Java Skills Certificate</text>
    <text x="496" y="137" class="cert-issuer">HackerRank</text>
    <rect x="712" y="113" width="102" height="18" rx="9" class="badge-verif-bg"/>
    <text x="763" y="125" text-anchor="middle" class="badge-text badge-verif-text">Verified</text>

    <rect x="32" y="167" width="390" height="64" rx="10" class="card"/>
    <rect x="32" y="167" width="3" height="64" rx="2" fill="#1d9e75"/>
    <rect x="46" y="181" width="34" height="34" rx="7" class="icon-teal"/>
    <circle cx="63" cy="198" r="9" stroke="#1d9e75" stroke-width="1.5" fill="none"/>
    <path d="M58 198 l3 3 l6-6" stroke="#1d9e75" stroke-width="1.75" stroke-linecap="round" stroke-linejoin="round" fill="none"/>
    <text x="90" y="195" class="cert-name">Java Intermediate</text>
    <text x="90" y="210" class="cert-issuer">SoloLearn</text>
    <rect x="306" y="186" width="102" height="18" rx="9" class="badge-verif-bg"/>
    <text x="357" y="198" text-anchor="middle" class="badge-text badge-verif-text">Certified</text>

    <rect x="438" y="167" width="390" height="64" rx="10" class="card"/>
    <rect x="438" y="167" width="3" height="64" rx="2" fill="#e24b4a"/>
    <rect x="452" y="181" width="34" height="34" rx="7" class="icon-red"/>
    <text x="469" y="203" text-anchor="middle" font-size="15" font-weight="700" fill="#e24b4a">J</text>
    <text x="490" y="195" class="cert-name">Java Foundation</text>
    <text x="490" y="210" class="cert-issuer">StudySection · 83.33%</text>
    <rect x="706" y="186" width="108" height="18" rx="9" class="badge-dist-bg"/>
    <text x="760" y="198" text-anchor="middle" class="badge-text badge-dist-text">Distinction</text>

    <rect x="32" y="240" width="390" height="64" rx="10" class="card"/>
    <rect x="32" y="240" width="3" height="64" rx="2" fill="#378add"/>
    <rect x="46" y="254" width="34" height="34" rx="7" class="icon-blue"/>
    <text x="63" y="277" text-anchor="middle" font-size="12" font-weight="700" fill="#58a6ff">C++</text>
    <text x="90" y="268" class="cert-name">C++ Object-Oriented Programming</text>
    <text x="90" y="283" class="cert-issuer">Codefinity</text>
    <rect x="306" y="259" width="102" height="18" rx="9" class="badge-verif-bg"/>
    <text x="357" y="271" text-anchor="middle" class="badge-text badge-verif-text">Certified</text>

    <line x1="32" y1="318" x2="828" y2="318" class="divider"/>
    <text x="32" y="338" class="cat-label">DATA SCIENCE &amp; MACHINE LEARNING</text>

    <rect x="32" y="347" width="390" height="64" rx="10" class="card"/>
    <rect x="32" y="347" width="3" height="64" rx="2" fill="#378add"/>
    <rect x="46" y="361" width="34" height="34" rx="7" class="icon-blue"/>
    <rect x="54" y="378" width="5" height="9" rx="1" fill="#58a6ff"/>
    <rect x="61" y="372" width="5" height="15" rx="1" fill="#58a6ff"/>
    <rect x="68" y="368" width="5" height="19" rx="1" fill="#58a6ff"/>
    <text x="90" y="375" class="cert-name">Pandas Mastery</text>
    <text x="90" y="390" class="cert-issuer">Kaggle</text>
    <rect x="306" y="362" width="102" height="18" rx="9" class="badge-verif-bg"/>
    <text x="357" y="374" text-anchor="middle" class="badge-text badge-verif-text">Certified</text>

    <rect x="438" y="347" width="390" height="64" rx="10" class="card"/>
    <rect x="438" y="347" width="3" height="64" rx="2" fill="#378add"/>
    <rect x="452" y="361" width="34" height="34" rx="7" class="icon-blue"/>
    <circle cx="462" cy="370" r="2.5" fill="#58a6ff"/>
    <circle cx="476" cy="370" r="2.5" fill="#58a6ff"/>
    <circle cx="469" cy="383" r="2.5" fill="#58a6ff"/>
    <line x1="462" y1="370" x2="469" y2="383" stroke="#58a6ff" stroke-width="1"/>
    <line x1="476" y1="370" x2="469" y2="383" stroke="#58a6ff" stroke-width="1"/>
    <line x1="462" y1="370" x2="476" y2="370" stroke="#58a6ff" stroke-width="1"/>
    <text x="496" y="375" class="cert-name">Intermediate Machine Learning</text>
    <text x="496" y="390" class="cert-issuer">Kaggle</text>
    <rect x="712" y="362" width="102" height="18" rx="9" class="badge-verif-bg"/>
    <text x="763" y="374" text-anchor="middle" class="badge-text badge-verif-text">Certified</text>

    <line x1="32" y1="424" x2="828" y2="424" class="divider"/>
    <text x="32" y="444" class="cat-label">INFRASTRUCTURE &amp; DEVOPS</text>

    <rect x="32" y="453" width="796" height="64" rx="10" class="card"/>
    <rect x="32" y="453" width="3" height="64" rx="2" fill="#2496ED"/>
    <rect x="46" y="467" width="34" height="34" rx="7" class="icon-blue"/>
    <rect x="52" y="476" width="22" height="6" rx="2" fill="#2496ED"/>
    <rect x="55" y="471" width="6" height="6" rx="1" fill="#2496ED"/>
    <rect x="63" y="471" width="6" height="6" rx="1" fill="#2496ED"/>
    <text x="90" y="481" class="cert-name">Docker Expert</text>
    <text x="90" y="496" class="cert-issuer">CodeSignal · 3 consecutive assessments</text>
    <rect x="710" y="468" width="104" height="18" rx="9" class="badge-expert-bg"/>
    <text x="762" y="480" text-anchor="middle" class="badge-text badge-expert-text">Expert × 3</text>

    <line x1="32" y1="533" x2="828" y2="533" class="divider"/>
    <text x="430" y="556" text-anchor="middle" class="footer-text">All credentials are linked and verifiable. Click any card to access the certificate.</text>
</svg>